<?xml version="1.0" encoding="UTF-8" standalone="no"?>
<svg
   xmlns:dc="http://purl.org/dc/elements/1.1/"
   xmlns:cc="http://creativecommons.org/ns#"
   xmlns:rdf="http://www.w3.org/1999/02/22-rdf-syntax-ns#"
   xmlns:svg="http://www.w3.org/2000/svg"
   xmlns="http://www.w3.org/2000/svg"
   xmlns:sodipodi="http://sodipodi.sourceforge.net/DTD/sodipodi-0.dtd"
   xmlns:inkscape="http://www.inkscape.org/namespaces/inkscape"
   viewBox="0 0 808.44 158"
   version="1.1"
   id="svg27"
   sodipodi:docname="logo.svg"
   width="808.44"
   height="158"
   inkscape:version="1.0 (4035a4fb49, 2020-05-01)">
  <metadata
     id="metadata31">
    <rdf:RDF>
      <cc:Work
         rdf:about="">
        <dc:format>image/svg+xml</dc:format>
        <dc:type
           rdf:resource="http://purl.org/dc/dcmitype/StillImage" />
        <dc:title />
      </cc:Work>
    </rdf:RDF>
  </metadata>
  <sodipodi:namedview
     inkscape:document-rotation="0"
     pagecolor="#ffffff"
     bordercolor="#666666"
     borderopacity="1"
     objecttolerance="10"
     gridtolerance="10"
     guidetolerance="10"
     inkscape:pageopacity="0"
     inkscape:pageshadow="2"
     inkscape:window-width="1920"
     inkscape:window-height="1017"
     id="namedview29"
     showgrid="false"
     inkscape:zoom="0.82741238"
     inkscape:cx="439.85493"
     inkscape:cy="91.056443"
     inkscape:window-x="1912"
     inkscape:window-y="-8"
     inkscape:window-maximized="1"
     inkscape:current-layer="Layer_2" />
  <defs
     id="defs4">
    <style
       id="style2">.cls-1{fill:#000000;}.cls-2{fill:#29cd5e;}</style>
  </defs>
  <g
     id="Layer_2"
     data-name="Layer 2"
     transform="translate(-52,-38)">
    <path
       class="cls-1"
       d="M 182.88,142.59 V 171.2 H 80.63 V 63.46 h 104.42 l 18,-20.13 H 78.43 A 18,18 0 0 0 60.5,61.26 V 173.4 a 18,18 0 0 0 17.93,17.93 H 185.08 A 18,18 0 0 0 203,173.4 v -55.22 z"
       id="path6" />
    <path
       style="fill:#2998cd;fill-opacity:1"
       class="cls-2"
       d="m 203,43.33 -58.42,65.49 a 5.75,5.75 0 0 1 -8.12,0.46 L 114.77,90 a 5.75,5.75 0 0 0 -8.12,0.47 l -12.48,14 a 5.76,5.76 0 0 0 0.47,8.12 l 26,23.16 v 0.05 l 18.29,16.3 a 5.76,5.76 0 0 0 8.12,-0.47 l 56,-62.51 z"
       id="path8" />
    <path
       class="cls-1"
       d="m 340.2,125.78 c 0,24.75 -16.37,38.78 -38.64,38.78 -25.17,0 -42.09,-19.25 -42.09,-49.65 0,-29.29 17.6,-49.64 42.77,-49.64 19.67,0 30.12,9.21 36.45,24.06 L 320.4,96.9 c -3.58,-7.15 -8,-12.52 -18.43,-12.52 -14.44,0 -22.69,12.66 -22.69,30.53 0,17.87 8.38,30.81 22.83,30.81 13.2,0 17.74,-6.19 18.84,-14.58 h -15.27 v -18 h 34.52 z"
       id="path10" />
    <path
       class="cls-1"
       d="m 416.25,127 c 0,22.14 -13.89,37.54 -32.73,37.54 -18.84,0 -32.6,-15.4 -32.6,-37.54 0,-22.14 13.76,-37.69 32.6,-37.69 18.84,0 32.73,15.57 32.73,37.69 z M 397,127 c 0,-11 -4.41,-19.39 -13.48,-19.39 -9.07,0 -13.34,8.25 -13.34,19.39 0,11.14 4.26,19.25 13.34,19.25 9.08,0 13.48,-9.19 13.48,-19.25 z"
       id="path12" />
    <path
       class="cls-1"
       d="m 486.8,163.05 h -19 v -4.54 a 22.28,22.28 0 0 1 -15.27,6.05 c -15.4,0 -28.05,-11.55 -28.05,-38.51 0,-21.59 10.17,-36.72 28.05,-36.72 A 22.9,22.9 0 0 1 467.82,95 V 72.28 l 19,-9.49 z m -19,-22.42 V 113.4 A 15.11,15.11 0 0 0 455,107.21 c -7.29,0 -11.28,6.33 -11.28,18.43 0,14.85 4.95,21 12.38,21 5.9,0.04 8.97,-2.43 11.72,-6.01 z"
       id="path14" />
    <path
       class="cls-1"
       d="M 545.79,140.91 543,160.16 c -3.16,2.48 -8.8,4.4 -14.71,4.4 -11.69,0 -19.26,-9.07 -19.26,-21.73 v -34.1 H 497 V 90.85 h 12.1 V 72.28 l 19,-9.49 v 28.06 h 17.33 v 17.88 h -17.38 v 29 c 0,6.88 2.48,8.67 7,8.67 3.45,0.01 6.07,-1.5 10.74,-5.49 z"
       id="path16" />
    <path
       class="cls-1"
       d="m 681.39,66.78 -34.25,96.27 h -18.7 L 594.19,66.78 h 21.32 l 18.15,55.7 c 1.79,5.36 3.72,12.38 4.54,15.81 0.83,-3.57 2.62,-10.17 4.4,-15.81 l 17.74,-55.7 z"
       id="path18" />
    <path
       class="cls-1"
       d="m 740.8,163.05 h -19 v -4.81 c -3.44,3.57 -9.49,6.32 -16.23,6.32 -13.48,0 -27,-8.25 -27,-25.72 0,-16 12.93,-23.93 29.3,-23.93 6.6,0 10.86,1.38 13.89,2.89 v -3.57 c 0,-5.09 -3.44,-9.22 -10.32,-9.22 -8.66,0 -13.2,1.24 -19.8,4.82 l -7.29,-13.21 c 8.39,-4.81 15.4,-7.29 27.09,-7.29 17.47,0 29.3,9.08 29.3,25.31 z m -19,-21.18 v -9.08 c -3.3,-2.06 -6.47,-3 -13.21,-3 -7.15,0 -11,3.3 -11,9.07 0,5.09 2.89,9.63 11,9.63 6.21,-0.02 11.16,-3.18 13.23,-6.62 z"
       id="path20" />
    <path
       class="cls-1"
       d="m 775.45,163.05 h -19 V 72.28 l 19,-9.49 z"
       id="path22" />
    <path
       class="cls-1"
       d="m 850.4,150.81 c 0,23.79 -5.78,36 -31.08,38.78 l -6.74,-14.3 c 14.85,-2.06 18.84,-5.64 18.84,-16.78 a 22.25,22.25 0 0 1 -15.26,6.05 c -15.41,0 -28.06,-11.55 -28.06,-38.51 0,-21.59 10.18,-36.72 28.06,-36.72 A 22.89,22.89 0 0 1 831.42,95 v -4.15 h 19 z m -19,-10.18 V 113.4 a 15.11,15.11 0 0 0 -12.79,-6.19 c -7.29,0 -11.28,6.33 -11.28,18.43 0,14.85 5,21 12.38,21 5.93,0.04 8.96,-2.43 11.71,-6.01 z"
       id="path24" />
  </g>
</svg>
